<?xml version="1.0" encoding="UTF-8" standalone="no"?>
<svg
   width="6.30556in"
   height="6.30556in"
   viewBox="0 0 454 454"
   version="1.1"
   id="svg1"
   xmlns="http://www.w3.org/2000/svg"
   xmlns:svg="http://www.w3.org/2000/svg">
  <defs
     id="defs1" />
  <path
     id="Auswahl #2"
     fill="none"
     stroke="#000000"
     stroke-width="1"
     d="m 221,94 c 28.19,-15.98 72.07,-17.3 103,-9.77 18.41,4.48 24.64325,10.963885 26.34325,-3.656115 L 373,94 l -16,5.98 -14.98,4.87 c -3.58,1.59 -6.94,5.04 -4.38,9.04 2.05,3.2 6.93,4.49 10.36,5.69 5.68,1.98 22,6.65 25.79,9.98 3.43,3 4.43,7.32 5.9,11.44 l 6.31,19 c 1.22,4.1 3.63,9.58 8.96,8.51 4.2,-0.84 4.98,-5.05 6.06,-8.51 1.7,-5.42 5.29,-17.61 7.98,-22 l 10.65676,22.34449 C 415.93676,160.94449 409.06,156.8 408.2,161 c -0.65,3.19 2.15,9.64 3.05,13 l 4.62,23 1.22,17 0.91,12 c 0.04,26.46 -1.21,48.48 -9.19,74 -2.49,7.97 -5.59,15.78 -9.82,23 -1.2,2.05 -3.83,6.97 -6.13,7.66 -3.34,1.01 -7.48,-6.33 -9.23,-8.66 l -17.77,-24 c -2.07,-2.89 -5.97,-7.41 -6.05,-11 l 3.74,-15 c 1.51,-7.15 3.44,-22.77 3.45,-30 v -15 c -0.01,-7.06 -0.83,-10.26 -1.72,-17 -2.66,-20.2 -8.74,-39.43 -22.46,-55 -16.05,-18.2 -36.6,-23.04 -59.82,-23 -7.93,0.01 -13.41,0.97 -21,3.14 -2.4,0.69 -10.37902,5.19999 -12.54902,4.36999 C 246.97098,138.57999 244.74,124.92 243.14,122 237.59,111.93 230.19,102.95 221,96 Z m -53,60 c 5.99,2.84 9.41,7.48 10.69,14 0.84,4.33 0.04,9.39 3.55,12.69 2.37,2.22 4.73,2.25 7.76,2.31 l 28.48626,-0.74588 c -1.13,7.31 -6.93868,12.58475 -5.46868,20.04475 L 181,192.01 152.17115,186.52761 C 156.33115,182.36761 159.44,179.41 160.92,174 Z m -9,126 c 8.65,1.22 21.17,4.78 24.3,14 3.23,9.51 -2.74,24.82 -11.08,24.43 -3,-0.14 -4.8,-6.04 -5.8,-8.43 -3.55,-8.47 -7.22,-20.84 -7.42,-30 z m 125,6 h 50 c 2.46,0 5.63,-0.21 7.83,1.02 3.73,2.09 13.39,16.72 16.55,20.98 l 38.91,53 c 5.16,7.16 14.73,18.21 17.71,26 l -47,1 c -3.09,0 -7.06,0.19 -9.83,-1.31 -3.26,-1.78 -12.75,-14.97 -15.54,-18.69 L 300.29,311 C 295.72,304.59 285.68,292.85 284,286 Z m -14,44 h 1 l -1,1 z m -0.26162,5.42193 c 4.64,1.13 14.50162,1.81807 19.26162,1.32807 4.06,-0.11 11.11,-1.66 14.91,0 3.61,1.28 7.6,8.03 9.97,11.25 L 336,379 c -18.32,9.38 -49.76,10.3 -70,7.85 L 238,382 253.84,364 c 7.82,-10.59 10.74838,-17.04807 15.89838,-28.57807 z"
     style="display:inline;fill:#13b4b2;fill-opacity:0.937255;stroke:none" />
  <path
     id="Auswahl #1"
     fill="none"
     stroke="#000000"
     stroke-width="1"
     d="m 16,301 h 42 c 2.01,0 5.78,-0.24 7.41,1.02 L 70.52,315 c 2.76,5.53 7.22,10.12 12.48,13.33 15.73,9.57 40,8.7 58,8.67 12.7,-0.02 31.47,-2.39 42,-9.8 16.03,-11.28 19.59,-35.66 3.91,-48.77 C 174.69,268.21 150.6,264.98 135,262.73 107.24,258.73 68.42,253.53 45,237.9 29,227.22 18.45,207.95 16.05,189 v -7 c -0.44,-4.37 -1.21,-5.97 -1.01,-11 0.83,-21.48 7.49,-43.47 23,-58.96 C 57.29,92.81 86.77,85.75 113,83.91 L 123,83 c 32.42,-0.38 72.73,4.1 96.96,28.04 11.69,11.54 18.6,26.87 21.29,42.96 l 2.64741,8.56258 c 0.69,5.35 1.31807,9.58322 -5.70193,8.83322 L 229,170.13 l -30.29835,1.49176 c -11.3,-0.21 -7.36204,-4.6067 -13.44204,-14.7267 C 181.47961,150.60506 177.49,144.74 171,141.44 c -10.09,-5.13 -20.95,-5.76 -32,-6.53 l -8,-0.83 -9,0.88 -21,1.41 c -9.72,1.84 -21.26,6.7 -27.47,14.64 -6.98,8.94 -8.36,24.93 -3.09,34.99 2.21,4.21 7.6,9.27 11.56,11.9 11.17,7.41 31.72,9.11 45,11.42 29.25,5.08 66.09,8.55 91,25.71 8.82,6.07 15.84,13.36 20.73,22.97 15.51,30.51 9.44,81.14 -17.73,103.54 -29.86,24.61 -66.2,25.89 -103,25.46 L 96,384.59 C 60.26,378.84 29.02,361.46 19.38,324 17.55,316.89 16.07,308.33 16,301 Z"
     style="display:inline;fill:#12b4b2;fill-opacity:0.937255;stroke:none" />
  <path
     id="Auswahl #4"
     fill="none"
     stroke="#000000"
     stroke-width="1"
     d="m 393.07032,76.734201 2.17581,-0.386772 c 2.49,8.35 7.49225,18.794194 14.76225,24.124191 5.89,4.31 14.81451,6.2158 19.80451,10.9658 -8.13,3.46 -20.55289,5.59258 -26.45289,12.88258 -5.23,6.46 -4.40549,17.8916 -9.37549,23.2116 -3.29,-8.48 -9.84933,-17.2742 -17.25933,-23.2042 -5.99,-4.8 -12.61364,-7.90262 -17.81364,-12.38262 5.92,-3.03 13.28686,-9.62282 18.38686,-13.672822 8.01,-6.35 11.98192,-12.887757 15.77192,-21.537757 z"
     style="display:inline;fill:#f8db43;fill-opacity:1;stroke:none" />
  <path
     id="Auswahl #3"
     fill="none"
     stroke="#000000"
     stroke-width="1"
     d="m 392.05,53.83 c 7.29,-0.79 7.84,3.46 9.81,9.17 2.34,6.77 5.73,20.57 9.27,25.98 4.9,7.49 19.46,10.87 27.87,13.57 4.9,1.58 13.2,3.51 11.67,10.41 -1.03,4.62 -6.79,5.75 -10.67,7.04 -7.24,2.42 -23.88,6.53 -28.35,12.18 -2.44,3.09 -2.98,7.17 -4.17,10.82 0,0 -5.82,18 -5.82,18 -1.5,4.56 -3.67,9.84 -9.64,8.53 -4.95,-1.09 -5.85,-6.43 -7.18,-10.53 -2.27,-6.98 -6.23,-21.55 -10.47,-26.9 -4.25,-5.34 -19.54,-9.5 -26.37,-11.68 -3.83,-1.21 -9.8,-2.33 -11.4,-6.48 -2.16,-5.6 1.63,-8.78 6.4,-10.35 8.76,-2.87 27.98,-7.4 33.15,-14.63 3.11,-4.35 6.96,-18.23 8.93,-23.96 1.62,-4.74 2.42,-8.65 6.97,-11.17 z M 395,78 c 0,0 -2,0 -2,0 -3.07,7.94 -5.29,17.92 -12.04,23.62 -6.83,5.77 -14.48,5.55 -19.96,10.38 9.56,3.58 17.88,5.02 24.2,14 4.33,6.15 5.03,14.32 8.8,19 3.75,-8.56 5.17,-18.3 13.04,-24.45 6.17,-4.81 14.45,-5.61 19.96,-9.55 -7.17,-3.15 -14.86,-4.89 -20.91,-10.33 C 399.49,94.74 397.38,86.15 395,78 Z"
     style="display:inline;fill:#072751;fill-opacity:1;stroke:none" />
  <path
     id="dunkel"
     fill="none"
     stroke="#000000"
     stroke-width="1"
     d="m 417.09418,201.85936 c 2.63,4.03 6.31546,8.28549 6.37546,13.01549 l -0.28129,34.09417 c -0.1,20.68 -9.90675,50.25516 -18.32675,69.12516 l -12.86878,17.55251 C 383.32282,328.49669 376.85,311.07 369.88,302 c -2.56,-3.34 -11.84546,-10.49193 -12.46546,-14.42193 l 6.75837,-23.28129 c 2.29,-16.15 4.07203,-32.12651 1.93203,-48.34651 L 385,211.43 Z M 366,209 v 6 z M 62.126921,246.6022 99,252.57 141,256 h 28 l 17,-1 34,-2.84 c 3.18,-0.34 12.08681,-1.05341 13.38681,-4.35341 6.89,4.13 12.16,22.34341 13.41,30.19341 4.2,26.39 1.12671,60.29572 -17.90329,80.57572 -19.08,20.31 -57.05682,30.1689 -84.29682,30.2089 h -29.50274 c -10.55,-0.05 -28.471762,-3.07055 -38.491762,-6.48055 -13.42,-4.57 -28.747913,-11.26616 -39.097913,-21.28616 -11.13,-10.77 -17.882198,-28.53066 -21.032198,-43.52066 l -1.864395,-18.48077 52.884067,0.59671 c 0.62,4.37 2.036703,9.55121 3.916703,13.59121 11.72,25.2 44.986598,22.74714 68.486598,22.70714 13.11,-0.02 27.34098,-1.9989 39.01098,-8.2389 17.34,-9.27 22.24044,-28.21802 8.78044,-43.84802 -8.46,-9.84 -22.50044,-11.82989 -34.78044,-14.24989 L 94.403296,258.08407 c -6.8,-1.35 -26.756375,-8.10187 -32.276375,-11.48187 z m 218.950529,39.69458 53.0477,-2.95353 c 1.94699,-0.10841 6.60709,0.72386 8.37709,1.44386 4.45,1.82 13.04871,17.06516 16.36871,21.52516 l 38.38743,53.70322 c 5.36,7.47 15.76902,18.8216 18.53902,27.5316 l -48.23482,0.56258 c -2.59,-0.01 -9.4274,1.17451 -11.7774,-0.0355 -3.44,-1.77 -13.94936,-16.88323 -16.72936,-20.68323 l -30.16806,-41.15742 -11.72129,-16.12386 c -4.54,-6.67 -13.67902,-16.25289 -16.08902,-23.81289 z m 118.28671,48.73544 -4.97321,-0.0703 2.54709,-0.96902 z m -163.43065,49.05075 13.68418,-15.52077 12.46671,-18.1589 7.12018,-14.99129 12.59102,-0.12773 12.10495,1.14369 9.60643,-0.0994 9.8078,11.27368 23.91736,32.59121 c -24.27,8.09 -29.97444,10.52077 -54.57444,10.48077 -11.5,-0.02 -35.57419,-4.49121 -46.72419,-6.59121 z"
     style="display:inline;fill:#03929a;fill-opacity:1;stroke:none" />
  <path
     id="Auswahl"
     fill="none"
     stroke="#000000"
     stroke-width="1"
     d="m 158,323 c -3.83,-9.63 -7.3,-20.88 -9.58,-31 -0.82,-3.65 -1.77,-11.84 -4.73,-14.07 -3.15,-2.37 -10.78,-2.69 -14.69,-3.39 L 90,267.5 C 67.14,262.35 44.45,255.53 27.01,238.91 9.1,221.83 2.72,195 3,171 3.11,162.09 5.24,147.5 7.9,139 24.56,85.55 80.15,70.8 130,71 l 14,0.91 c 12.97,0.8 24.33,1.71 37,5.1 5.71,1.53 11.54,3.45 17,5.72 2.51,1.04 7.46,3.54 10,3.39 2.45,-0.14 8.37,-3.6 11,-4.81 6.16,-2.83 12.46,-5.37 19,-7.16 23.35,-6.39 37.31,-6.42 61,-6.15 9.96,0.12 34.5,5.47 44,9.2 4.48,1.76 15.38,5.48 9.4,12.49 -3.09,3.44 -7.79,1.47 -11.4,0 C 335.37,87.7 319.8,83.33 314,82.32 280.45,76.48 252.14,80.79 221,94 v 2 c 11.99,5.67 26.62,28.86 29,42 12.16,-2.75 27.27,-8.24 40,-6.58 14.2,1.86 23.88,2.69 37,9.7 27.55,14.73 39.95,54.38 40,83.88 v 21 c -0.01,7.56 -1.67,19.57 -3.35,27 -0.74,3.28 -3.45,12.38 -2.97,15 0.67,3.73 6.03,9.84 8.44,13 4.24,5.57 19.79,26.09 21.88,31 h 2 l 13.31,-26 c 5.53,-15.2 10.5,-35.83 10.69,-52 l 1,-22 -0.0152,-10 -0.94478,-10 -2.31,-19 -7.11,-30 c -0.51,-4.47 2.46,-8.66 7.29,-7.53 5.42,1.27 7.21,12.68 8.46,17.53 2.47,9.6 6.58,34.51 6.63,44 l 0.49226,12.92968 L 430.20678,243 429.17,258 c -1.77,18.44 -3.43,33.25 -9.86,51 -3.17,8.73 -7.15,17.08 -11.97,25 -1.31,2.16 -6.01,9.09 -5.67,11.28 0.37,2.43 7.48,11.34 9.32,13.72 l 20.38,28 c 5.4,9.21 1.98,11.98 -7.37,12 h -63 c -3.6,-0.01 -6.8,0.28 -9.99,-1.74 -3.12,-1.97 -5.31,-6.29 -9.05,-6.35 -1.89,-0.04 -8.68,2.37 -10.96,3.02 l -21,4.61 -9,0.63 c -13.08,1.25 -24.97,0.96 -38,-0.9 l -24.98,-4.97 c -3.52,-1.55 -6.22,-4.5 -3.6,-8.24 1.26,-1.79 3.43,-3.27 5.58,-3.71 l 23,4.06 c 24.78,3.88 48.26,1.36 72,-6.41 l -22.12,-30 -9.92,-11.69 -14.96,0.6 -19,-1.91 2,-12 c 8.4,1.5 15.69,2.2 24,0 L 274.82,295 273,274 h 48 c 9.91,0 19.47,-0.96 29,2 l 2.56,-12 c 1.21,-7.58 2.53,-24.31 2.44,-32 l 0.004,-8.30934 L 353.96,214 c -2.12,-18.57 -9.23,-39.91 -22.71,-53.25 -13.89,-13.77 -39.37,-19.76 -58.25,-15.63 -4.45,0.97 -14.49,2.8 -17.4,6.3 -4.53,5.43 6.45,28.12 -5.62,31.42 -1.41,0.22 -4.42,0.16 -5.98,0 -3.09,0.17 -10.32,-0.3 -12.78,1.18 -4.57,2.76 -7.1,16.84 -7.22,21.98 l -12,-4 c 0.15,-6.87 1.56,-11.64 4,-18 -6.93,-1.68 -17.58,-0.99 -25,-1 -2.96,-0.01 -6.35,0.27 -8.85,-1.6 -5.83,-4.35 -0.43,-11.19 -6.95,-20.39 -1.16,-1.65 -3.62,-4.77 -5.93,-4.39 -2.33,0.39 -3.88,5.43 -4.58,7.38 l -4.32,14 c -0.44,1.78 -1.24,6.14 -2.35,7.4 -2,2.27 -8.06,0.74 -11.02,0.6 0.2,-8.98 2.58,-16.54 5.29,-25 0.8,-2.49 3.61,-8.36 2.5,-10.57 -1.76,-3.53 -10.39,-3.42 -13.79,-3.43 -15.4,-0.02 -36.14,-1.8 -50,5.37 -9.86,5.11 -14.76,18.72 -8.71,28.62 4.61,7.55 13.64,9.94 21.71,11.88 l 54,9.21 c 22.85,3.86 49.88,10.08 69,23.7 21.59,15.38 32.37,41.22 32.99,67.22 l -0.9,13 c -0.77,11.3 -0.63,12.64 -3.84,24 -1.43,5.1 -5.54,14.26 -8.09,19 -15.63,29.09 -49.68,44.2 -81.16,48.7 l -20,1.72 h -8 l -9,0.58 c -12.49,0.14 -24.76,-1.56 -37,-3.68 L 82,394.77 C 66.49,391.17 49.42,383.84 37.04,373.79 20.17,360.1 11.29,343.91 6.35,323 L 4.18,314 C 3.6,309.17 1.28,292.87 5.43,290.02 7.24,288.78 10.84,289 13,289 h 39 c 6.01,-0.07 18.79,-2.89 23.57,1.01 2.93,2.39 2.9,8.43 3.77,11.99 1.53,6.26 5.14,12.25 10.67,15.72 9.37,5.87 18.64,5.66 28.99,6.37 l 14,0.91 11,-0.96 c 7.05,-0.31 6.21,0.36 14,-1.04 z m 85,-154 -2.09,-16 C 238.05,137.81 231.19,121.99 219.96,111.09 208.12,99.59 189.03,91.2 173,87.79 130.91,78.83 67.96,80.87 36.43,114.17 24.05,127.24 16.03,147.99 16,166 v 17 c 0.07,5.56 1.84,13.66 3.5,19 15.92,51.3 75.97,53.97 120.5,61.25 13.38,2.18 34.1,4.91 45,13.28 17.34,13.31 15.7,38.88 -2,51.01 -9.37,6.41 -25.71,9.44 -37,9.46 l -16,0.82 C 113.83,336.67 94.75,337.06 81,327.21 76.71,324.14 72.48,319.77 70.14,315 66.98,308.57 67.57,303.82 65.27,301.99 63.69,300.74 59.97,301 58,301 H 16 c 0.74,9.08 2.73,21.56 6,30 2.9,7.47 6.54,14.67 11.52,21 24.72,31.44 67.59,35.06 104.48,35 l 12,-0.91 c 39.67,-2.77 81.46,-17.39 92.85,-60.09 1.47,-5.54 3.08,-13.32 3.15,-19 0.17,-14.66 0.93,-25.77 -3.75,-40 C 228.19,224.27 176.91,218.13 139,211.46 l -8,-0.83 -18,-3.55 C 96.92,204.26 77.71,201.73 69.91,185 c -1.86,-4 -2.81,-8.61 -2.89,-13 -0.1,-4.69 0.2,-6.55 1.65,-11 5.95,-18.25 21.05,-23.21 38.33,-25.28 10.36,-1.25 14.36,-1.84 25,-1.72 l 10,0.91 c 14.19,1.04 25.41,2.27 36.99,11.61 3.73,3.01 7.82,8.1 9.82,12.48 1.16,2.53 2.26,8.68 3.92,10.01 1.58,1.25 5.3,0.99 7.27,0.99 8.81,0.02 36.3,0.9 43,-1 z m -84,112 c 2.11,9.35 4.2,19.12 7.86,28 0.94,2.28 2.71,7.61 5.36,8.13 2.29,0.44 5.09,-1.8 6.57,-3.32 4.71,-4.8 5.76,-11.48 4.17,-17.81 -2.44,-9.67 -14.85,-14.5 -23.96,-15 z M 414,386 394.86,359 358.79,310 341.7,288.02 334,287 h -50 l 27.26,37 29.53,40 c 4.12,5.3 13.62,20.1 19.21,22.26 2.26,0.87 5.57,0.74 8,0.74 z"
     style="display:inline;fill:#072751;fill-opacity:1;stroke:none" />
</svg>
